<?xml version="1.0" encoding="UTF-8" standalone="no"?>
<!DOCTYPE svg PUBLIC "-//W3C//DTD SVG 1.1//EN" "http://www.w3.org/Graphics/SVG/1.1/DTD/svg11.dtd">
<svg version="1.1" xmlns="http://www.w3.org/2000/svg" xmlns:xlink="http://www.w3.org/1999/xlink" preserveAspectRatio="xMidYMid meet" viewBox="0 0 1366 780" width="1366" height="780"><defs><path d="M0 0C0 429.86 0 668.68 0 716.44C137.6 695.74 247.68 668.53 275.2 663.21C412.8 630.68 522.88 586.46 550.4 577.94C688 525.2 798.08 467.56 825.6 455.29C963.2 385.39 1073.28 439.36 1100.8 437.59C1192.53 472.39 1284.27 420.43 1376 281.73L1376 0L0 0Z" id="e4KNNMeVq"></path><linearGradient id="gradientd4p9GwyND" gradientUnits="userSpaceOnUse" x1="0" y1="0" x2="1376" y2="0"><stop style="stop-color: #ff00ff;stop-opacity: 1" offset="0%"></stop><stop style="stop-color: #00ffff;stop-opacity: 1" offset="100%"></stop></linearGradient><path d="M1332.58 569.86C1332.58 571.95 1254.55 573.65 1158.43 573.65C1062.32 573.65 984.29 571.95 984.29 569.86C984.29 567.77 1062.32 566.07 1158.43 566.07C1254.55 566.07 1332.58 567.77 1332.58 569.86Z" id="i1ici5A3g"></path><path d="M1402.2 378.55C1402.2 378.55 1402.2 378.55 1402.2 378.55C1402.2 381.91 1402.2 383.78 1402.2 384.15C1402.2 384.15 1402.2 384.15 1402.2 384.15C1291.05 384.15 1229.3 384.15 1216.95 384.15C1216.95 384.15 1216.95 384.15 1216.95 384.15C1216.95 380.79 1216.95 378.93 1216.95 378.55C1216.95 378.55 1216.95 378.55 1216.95 378.55C1328.1 378.55 1389.85 378.55 1402.2 378.55Z" id="c4QkydzImO"></path><path d="M1279.19 331.73C1279.19 331.73 1279.19 331.73 1279.19 331.73C1279.19 360.74 1279.19 376.86 1279.19 380.08C1279.19 380.08 1279.19 380.08 1279.19 380.08C1251.03 380.08 1235.39 380.08 1232.26 380.08C1232.26 380.08 1232.26 380.08 1232.26 380.08C1232.26 351.07 1232.26 334.95 1232.26 331.73C1232.26 331.73 1232.26 331.73 1232.26 331.73C1260.42 331.73 1276.06 331.73 1279.19 331.73Z" id="h3sBfK3awC"></path><path d="M1269.8 341.4C1269.8 341.4 1269.8 341.4 1269.8 341.4C1269.8 358.8 1269.8 368.48 1269.8 370.41C1269.8 370.41 1269.8 370.41 1269.8 370.41C1252.91 370.41 1243.52 370.41 1241.65 370.41C1241.65 370.41 1241.65 370.41 1241.65 370.41C1241.65 353 1241.65 343.33 1241.65 341.4C1241.65 341.4 1241.65 341.4 1241.65 341.4C1258.54 341.4 1267.93 341.4 1269.8 341.4Z" id="b3K2Xf9nvY"></path><path d="M1349.34 331.73C1349.34 331.73 1349.34 331.73 1349.34 331.73C1349.34 360.74 1349.34 376.86 1349.34 380.08C1349.34 380.08 1349.34 380.08 1349.34 380.08C1342.23 380.08 1338.27 380.08 1337.48 380.08C1337.48 380.08 1337.48 380.08 1337.48 380.08C1337.48 351.07 1337.48 334.95 1337.48 331.73C1337.48 331.73 1337.48 331.73 1337.48 331.73C1344.6 331.73 1348.55 331.73 1349.34 331.73Z" id="c4XsgtCGg"></path><path d="M1349.34 339.36C1349.34 339.36 1349.34 339.36 1349.34 339.36C1349.34 342.72 1349.34 344.59 1349.34 344.96C1349.34 344.96 1349.34 344.96 1349.34 344.96C1342.23 344.96 1338.27 344.96 1337.48 344.96C1337.48 344.96 1337.48 344.96 1337.48 344.96C1337.48 341.6 1337.48 339.73 1337.48 339.36C1337.48 339.36 1337.48 339.36 1337.48 339.36C1344.6 339.36 1348.55 339.36 1349.34 339.36Z" id="gcjXTrgKu"></path><path d="M1349.34 363.79C1349.34 363.79 1349.34 363.79 1349.34 363.79C1349.34 367.15 1349.34 369.02 1349.34 369.39C1349.34 369.39 1349.34 369.39 1349.34 369.39C1342.23 369.39 1338.27 369.39 1337.48 369.39C1337.48 369.39 1337.48 369.39 1337.48 369.39C1337.48 366.03 1337.48 364.17 1337.48 363.79C1337.48 363.79 1337.48 363.79 1337.48 363.79C1344.6 363.79 1348.55 363.79 1349.34 363.79Z" id="c28Jqrn8L"></path><path d="M1331.06 331.73C1331.06 331.73 1331.06 331.73 1331.06 331.73C1331.06 360.74 1331.06 376.86 1331.06 380.08C1331.06 380.08 1331.06 380.08 1331.06 380.08C1323.95 380.08 1320 380.08 1319.2 380.08C1319.2 380.08 1319.2 380.08 1319.2 380.08C1319.2 351.07 1319.2 334.95 1319.2 331.73C1319.2 331.73 1319.2 331.73 1319.2 331.73C1326.32 331.73 1330.27 331.73 1331.06 331.73Z" id="b22O0A7MkB"></path><path d="M1331.06 339.36C1331.06 339.36 1331.06 339.36 1331.06 339.36C1331.06 342.72 1331.06 344.59 1331.06 344.96C1331.06 344.96 1331.06 344.96 1331.06 344.96C1323.95 344.96 1320 344.96 1319.2 344.96C1319.2 344.96 1319.2 344.96 1319.2 344.96C1319.2 341.6 1319.2 339.73 1319.2 339.36C1319.2 339.36 1319.2 339.36 1319.2 339.36C1326.32 339.36 1330.27 339.36 1331.06 339.36Z" id="d1IVsjYh3k"></path><path d="M1331.06 363.79C1331.06 363.79 1331.06 363.79 1331.06 363.79C1331.06 367.15 1331.06 369.02 1331.06 369.39C1331.06 369.39 1331.06 369.39 1331.06 369.39C1323.95 369.39 1320 369.39 1319.2 369.39C1319.2 369.39 1319.2 369.39 1319.2 369.39C1319.2 366.03 1319.2 364.17 1319.2 363.79C1319.2 363.79 1319.2 363.79 1319.2 363.79C1326.32 363.79 1330.27 363.79 1331.06 363.79Z" id="c3oCoDVkOg"></path><path d="M1359.55 331.53C1359.55 331.53 1359.55 331.53 1359.55 331.53C1372.05 357.53 1378.99 371.97 1380.38 374.86C1380.38 374.86 1380.38 374.86 1380.38 374.86C1374 378.11 1370.46 379.92 1369.75 380.28C1369.75 380.28 1369.75 380.28 1369.75 380.28C1357.26 354.28 1350.32 339.84 1348.93 336.95C1348.93 336.95 1348.93 336.95 1348.93 336.95C1355.3 333.7 1358.85 331.89 1359.55 331.53Z" id="bFXehFKLh"></path><path d="M1362.84 338.37C1362.84 338.37 1362.84 338.37 1362.84 338.37C1364.29 341.38 1365.09 343.05 1365.25 343.39C1365.25 343.39 1365.25 343.39 1365.25 343.39C1358.88 346.64 1355.34 348.45 1354.63 348.81C1354.63 348.81 1354.63 348.81 1354.63 348.81C1353.18 345.8 1352.38 344.12 1352.22 343.79C1352.22 343.79 1352.22 343.79 1352.22 343.79C1358.59 340.54 1362.13 338.73 1362.84 338.37Z" id="f2pXQJ2fMP"></path><path d="M1373.36 360.26C1373.36 360.26 1373.36 360.26 1373.36 360.26C1374.81 363.27 1375.61 364.95 1375.77 365.28C1375.77 365.28 1375.77 365.28 1375.77 365.28C1369.4 368.53 1365.86 370.34 1365.15 370.7C1365.15 370.7 1365.15 370.7 1365.15 370.7C1363.7 367.69 1362.9 366.02 1362.74 365.68C1362.74 365.68 1362.74 365.68 1362.74 365.68C1369.11 362.43 1372.65 360.62 1373.36 360.26Z" id="cbHe4PL1w"></path><path d="M1255.77 361.79L1261.74 372.45L1249.8 372.45L1237.86 372.45L1243.83 361.79L1249.8 351.14L1249.8 351.14L1255.77 361.79Z" id="e2uudiewFI"></path><path d="M1266.14 363.83L1272.11 374.48L1260.17 374.48L1248.23 374.48L1254.2 363.83L1260.17 353.17L1260.17 353.17L1266.14 363.83Z" id="eWEDjpWDI"></path><path d="M1264.37 342.92C1262.46 342.92 1260.91 344.52 1260.91 346.49C1260.91 348.45 1262.46 350.05 1264.37 350.05C1266.28 350.05 1267.83 348.45 1267.83 346.49C1267.83 344.52 1266.28 342.92 1264.37 342.92Z" id="d1v6cmIBsE"></path><path d="M1216.95 307.3C1216.95 307.3 1216.95 307.3 1216.95 307.3C1216.95 303.94 1216.95 302.07 1216.95 301.7C1216.95 301.7 1216.95 301.7 1216.95 301.7C1328.1 301.7 1389.85 301.7 1402.2 301.7C1402.2 301.7 1402.2 301.7 1402.2 301.7C1402.2 305.06 1402.2 306.92 1402.2 307.3C1402.2 307.3 1402.2 307.3 1402.2 307.3C1291.05 307.3 1229.3 307.3 1216.95 307.3Z" id="d2uhZawTa"></path><path d="M1339.95 303.22C1339.95 303.22 1339.95 303.22 1339.95 303.22C1339.95 274.21 1339.95 258.1 1339.95 254.87C1339.95 254.87 1339.95 254.87 1339.95 254.87C1368.11 254.87 1383.75 254.87 1386.88 254.87C1386.88 254.87 1386.88 254.87 1386.88 254.87C1386.88 283.88 1386.88 300 1386.88 303.22C1386.88 303.22 1386.88 303.22 1386.88 303.22C1358.73 303.22 1343.08 303.22 1339.95 303.22Z" id="e3AvMvtRVi"></path><path d="M1349.34 293.55C1349.34 293.55 1349.34 293.55 1349.34 293.55C1349.34 276.15 1349.34 266.48 1349.34 264.54C1349.34 264.54 1349.34 264.54 1349.34 264.54C1366.23 264.54 1375.62 264.54 1377.5 264.54C1377.5 264.54 1377.5 264.54 1377.5 264.54C1377.5 281.95 1377.5 291.62 1377.5 293.55C1377.5 293.55 1377.5 293.55 1377.5 293.55C1360.6 293.55 1351.22 293.55 1349.34 293.55Z" id="g6Gtcw7Tqo"></path><path d="M1269.8 303.22C1269.8 303.22 1269.8 303.22 1269.8 303.22C1269.8 274.21 1269.8 258.1 1269.8 254.87C1269.8 254.87 1269.8 254.87 1269.8 254.87C1276.92 254.87 1280.87 254.87 1281.66 254.87C1281.66 254.87 1281.66 254.87 1281.66 254.87C1281.66 283.88 1281.66 300 1281.66 303.22C1281.66 303.22 1281.66 303.22 1281.66 303.22C1274.55 303.22 1270.6 303.22 1269.8 303.22Z" id="fo1JKgPT5"></path><path d="M1269.8 268.11C1269.8 268.11 1269.8 268.11 1269.8 268.11C1269.8 264.75 1269.8 262.88 1269.8 262.51C1269.8 262.51 1269.8 262.51 1269.8 262.51C1276.92 262.51 1280.87 262.51 1281.66 262.51C1281.66 262.51 1281.66 262.51 1281.66 262.51C1281.66 265.87 1281.66 267.73 1281.66 268.11C1281.66 268.11 1281.66 268.11 1281.66 268.11C1274.55 268.11 1270.6 268.11 1269.8 268.11Z" id="b5i9m5DPDs"></path><path d="M1269.8 292.54C1269.8 292.54 1269.8 292.54 1269.8 292.54C1269.8 289.18 1269.8 287.31 1269.8 286.94C1269.8 286.94 1269.8 286.94 1269.8 286.94C1276.92 286.94 1280.87 286.94 1281.66 286.94C1281.66 286.94 1281.66 286.94 1281.66 286.94C1281.66 290.3 1281.66 292.16 1281.66 292.54C1281.66 292.54 1281.66 292.54 1281.66 292.54C1274.55 292.54 1270.6 292.54 1269.8 292.54Z" id="a6R6ml2Ow"></path><path d="M1288.08 303.22C1288.08 303.22 1288.08 303.22 1288.08 303.22C1288.08 274.21 1288.08 258.1 1288.08 254.87C1288.08 254.87 1288.08 254.87 1288.08 254.87C1295.2 254.87 1299.15 254.87 1299.94 254.87C1299.94 254.87 1299.94 254.87 1299.94 254.87C1299.94 283.88 1299.94 300 1299.94 303.22C1299.94 303.22 1299.94 303.22 1299.94 303.22C1292.83 303.22 1288.87 303.22 1288.08 303.22Z" id="d5y17LfV"></path><path d="M1288.08 268.11C1288.08 268.11 1288.08 268.11 1288.08 268.11C1288.08 264.75 1288.08 262.88 1288.08 262.51C1288.08 262.51 1288.08 262.51 1288.08 262.51C1295.2 262.51 1299.15 262.51 1299.94 262.51C1299.94 262.51 1299.94 262.51 1299.94 262.51C1299.94 265.87 1299.94 267.73 1299.94 268.11C1299.94 268.11 1299.94 268.11 1299.94 268.11C1292.83 268.11 1288.87 268.11 1288.08 268.11Z" id="d4fIJ0VHL"></path><path d="M1288.08 292.54C1288.08 292.54 1288.08 292.54 1288.08 292.54C1288.08 289.18 1288.08 287.31 1288.08 286.94C1288.08 286.94 1288.08 286.94 1288.08 286.94C1295.2 286.94 1299.15 286.94 1299.94 286.94C1299.94 286.94 1299.94 286.94 1299.94 286.94C1299.94 290.3 1299.94 292.16 1299.94 292.54C1299.94 292.54 1299.94 292.54 1299.94 292.54C1292.83 292.54 1288.87 292.54 1288.08 292.54Z" id="f1uHEsyBuf"></path><path d="M1238.77 298C1238.77 298 1238.77 298 1238.77 298C1251.26 272 1258.2 257.56 1259.59 254.67C1259.59 254.67 1259.59 254.67 1259.59 254.67C1265.96 257.92 1269.51 259.73 1270.21 260.09C1270.21 260.09 1270.21 260.09 1270.21 260.09C1257.72 286.09 1250.78 300.54 1249.39 303.42C1249.39 303.42 1249.39 303.42 1249.39 303.42C1243.02 300.17 1239.47 298.37 1238.77 298Z" id="f3tt5PNwsZ"></path><path d="M1253.89 266.53C1253.89 266.53 1253.89 266.53 1253.89 266.53C1255.34 263.52 1256.14 261.85 1256.3 261.51C1256.3 261.51 1256.3 261.51 1256.3 261.51C1262.68 264.77 1266.22 266.57 1266.93 266.93C1266.93 266.93 1266.93 266.93 1266.93 266.93C1265.48 269.94 1264.68 271.62 1264.52 271.95C1264.52 271.95 1264.52 271.95 1264.52 271.95C1258.14 268.7 1254.6 266.89 1253.89 266.53Z" id="g1L56ybVkH"></path><path d="M1243.37 288.43C1243.37 288.43 1243.37 288.43 1243.37 288.43C1244.82 285.42 1245.62 283.74 1245.78 283.41C1245.78 283.41 1245.78 283.41 1245.78 283.41C1252.16 286.66 1255.7 288.47 1256.41 288.83C1256.41 288.83 1256.41 288.83 1256.41 288.83C1254.96 291.84 1254.16 293.51 1253.99 293.85C1253.99 293.85 1253.99 293.85 1253.99 293.85C1247.62 290.59 1244.08 288.79 1243.37 288.43Z" id="akVzfarGC"></path><path d="M1363.38 284.93L1357.41 295.59L1369.35 295.59L1381.29 295.59L1375.32 284.93L1369.35 274.28L1369.35 274.28L1363.38 284.93Z" id="f1up6EZHce"></path><path d="M1353 286.97L1347.03 297.63L1358.97 297.63L1370.91 297.63L1364.94 286.97L1358.97 276.32L1358.97 276.32L1353 286.97Z" id="c6PwBVPKl"></path><path d="M1354.77 266.07C1352.86 266.07 1351.32 267.66 1351.32 269.63C1351.32 271.6 1352.86 273.19 1354.77 273.19C1356.68 273.19 1358.23 271.6 1358.23 269.63C1358.23 267.66 1356.68 266.07 1354.77 266.07Z" id="h4kqTsrcKj"></path><path d="M1216.95 461.01C1216.95 461.01 1216.95 461.01 1216.95 461.01C1216.95 457.65 1216.95 455.78 1216.95 455.41C1216.95 455.41 1216.95 455.41 1216.95 455.41C1328.1 455.41 1389.85 455.41 1402.2 455.41C1402.2 455.41 1402.2 455.41 1402.2 455.41C1402.2 458.77 1402.2 460.63 1402.2 461.01C1402.2 461.01 1402.2 461.01 1402.2 461.01C1291.05 461.01 1229.3 461.01 1216.95 461.01Z" id="bUJZ6yXbr"></path><path d="M1339.95 456.94C1339.95 456.94 1339.95 456.94 1339.95 456.94C1339.95 427.92 1339.95 411.81 1339.95 408.58C1339.95 408.58 1339.95 408.58 1339.95 408.58C1368.11 408.58 1383.75 408.58 1386.88 408.58C1386.88 408.58 1386.88 408.58 1386.88 408.58C1386.88 437.59 1386.88 453.71 1386.88 456.94C1386.88 456.94 1386.88 456.94 1386.88 456.94C1358.73 456.94 1343.08 456.94 1339.95 456.94Z" id="b3GowgYrMP"></path><path d="M1349.34 447.26C1349.34 447.26 1349.34 447.26 1349.34 447.26C1349.34 429.86 1349.34 420.19 1349.34 418.25C1349.34 418.25 1349.34 418.25 1349.34 418.25C1366.23 418.25 1375.62 418.25 1377.5 418.25C1377.5 418.25 1377.5 418.25 1377.5 418.25C1377.5 435.66 1377.5 445.33 1377.5 447.26C1377.5 447.26 1377.5 447.26 1377.5 447.26C1360.6 447.26 1351.22 447.26 1349.34 447.26Z" id="b1Obk2WGKG"></path><path d="M1269.8 456.94C1269.8 456.94 1269.8 456.94 1269.8 456.94C1269.8 427.92 1269.8 411.81 1269.8 408.58C1269.8 408.58 1269.8 408.58 1269.8 408.58C1276.92 408.58 1280.87 408.58 1281.66 408.58C1281.66 408.58 1281.66 408.58 1281.66 408.58C1281.66 437.59 1281.66 453.71 1281.66 456.94C1281.66 456.94 1281.66 456.94 1281.66 456.94C1274.55 456.94 1270.6 456.94 1269.8 456.94Z" id="b2KGEwlSdP"></path><path d="M1269.8 421.82C1269.8 421.82 1269.8 421.82 1269.8 421.82C1269.8 418.46 1269.8 416.59 1269.8 416.22C1269.8 416.22 1269.8 416.22 1269.8 416.22C1276.92 416.22 1280.87 416.22 1281.66 416.22C1281.66 416.22 1281.66 416.22 1281.66 416.22C1281.66 419.58 1281.66 421.44 1281.66 421.82C1281.66 421.82 1281.66 421.82 1281.66 421.82C1274.55 421.82 1270.6 421.82 1269.8 421.82Z" id="b9yRN6NU1"></path><path d="M1269.8 446.25C1269.8 446.25 1269.8 446.25 1269.8 446.25C1269.8 442.89 1269.8 441.02 1269.8 440.65C1269.8 440.65 1269.8 440.65 1269.8 440.65C1276.92 440.65 1280.87 440.65 1281.66 440.65C1281.66 440.65 1281.66 440.65 1281.66 440.65C1281.66 444.01 1281.66 445.87 1281.66 446.25C1281.66 446.25 1281.66 446.25 1281.66 446.25C1274.55 446.25 1270.6 446.25 1269.8 446.25Z" id="a7nJYSu1D"></path><path d="M1288.08 456.94C1288.08 456.94 1288.08 456.94 1288.08 456.94C1288.08 427.92 1288.08 411.81 1288.08 408.58C1288.08 408.58 1288.08 408.58 1288.08 408.58C1295.2 408.58 1299.15 408.58 1299.94 408.58C1299.94 408.58 1299.94 408.58 1299.94 408.58C1299.94 437.59 1299.94 453.71 1299.94 456.94C1299.94 456.94 1299.94 456.94 1299.94 456.94C1292.83 456.94 1288.87 456.94 1288.08 456.94Z" id="evDYmOjDM"></path><path d="M1288.08 421.82C1288.08 421.82 1288.08 421.82 1288.08 421.82C1288.08 418.46 1288.08 416.59 1288.08 416.22C1288.08 416.22 1288.08 416.22 1288.08 416.22C1295.2 416.22 1299.15 416.22 1299.94 416.22C1299.94 416.22 1299.94 416.22 1299.94 416.22C1299.94 419.58 1299.94 421.44 1299.94 421.82C1299.94 421.82 1299.94 421.82 1299.94 421.82C1292.83 421.82 1288.87 421.82 1288.08 421.82Z" id="djnbRI61M"></path><path d="M1288.08 446.25C1288.08 446.25 1288.08 446.25 1288.08 446.25C1288.08 442.89 1288.08 441.02 1288.08 440.65C1288.08 440.65 1288.08 440.65 1288.08 440.65C1295.2 440.65 1299.15 440.65 1299.94 440.65C1299.94 440.65 1299.94 440.65 1299.94 440.65C1299.94 444.01 1299.94 445.87 1299.94 446.25C1299.94 446.25 1299.94 446.25 1299.94 446.25C1292.83 446.25 1288.87 446.25 1288.08 446.25Z" id="a4XO7ztT6"></path><path d="M1238.77 451.72C1238.77 451.72 1238.77 451.72 1238.77 451.72C1251.26 425.72 1258.2 411.27 1259.59 408.38C1259.59 408.38 1259.59 408.38 1259.59 408.38C1265.96 411.63 1269.51 413.44 1270.21 413.8C1270.21 413.8 1270.21 413.8 1270.21 413.8C1257.72 439.8 1250.78 454.25 1249.39 457.13C1249.39 457.13 1249.39 457.13 1249.39 457.13C1243.02 453.88 1239.47 452.08 1238.77 451.72Z" id="a4geVPKOA2"></path><path d="M1253.89 420.24C1253.89 420.24 1253.89 420.24 1253.89 420.24C1255.34 417.23 1256.14 415.56 1256.3 415.22C1256.3 415.22 1256.3 415.22 1256.3 415.22C1262.68 418.48 1266.22 420.28 1266.93 420.64C1266.93 420.64 1266.93 420.64 1266.93 420.64C1265.48 423.65 1264.68 425.33 1264.52 425.66C1264.52 425.66 1264.52 425.66 1264.52 425.66C1258.14 422.41 1254.6 420.6 1253.89 420.24Z" id="agnSclgI"></path><path d="M1243.37 442.14C1243.37 442.14 1243.37 442.14 1243.37 442.14C1244.82 439.13 1245.62 437.45 1245.78 437.12C1245.78 437.12 1245.78 437.12 1245.78 437.12C1252.16 440.37 1255.7 442.18 1256.41 442.54C1256.41 442.54 1256.41 442.54 1256.41 442.54C1254.96 445.55 1254.16 447.22 1253.99 447.56C1253.99 447.56 1253.99 447.56 1253.99 447.56C1247.62 444.3 1244.08 442.5 1243.37 442.14Z" id="a1brHSO3bN"></path><path d="M1363.38 438.65L1357.41 449.3L1369.35 449.3L1381.29 449.3L1375.32 438.65L1369.35 427.99L1369.35 427.99L1363.38 438.65Z" id="aqduxKdot"></path><path d="M1353 440.68L1347.03 451.34L1358.97 451.34L1370.91 451.34L1364.94 440.68L1358.97 430.03L1358.97 430.03L1353 440.68Z" id="a222LGKt"></path><path d="M1354.77 419.78C1352.86 419.78 1351.32 421.37 1351.32 423.34C1351.32 425.31 1352.86 426.91 1354.77 426.91C1356.68 426.91 1358.23 425.31 1358.23 423.34C1358.23 421.37 1356.68 419.78 1354.77 419.78Z" id="bRiWmBhHg"></path><path d="M1234.88 582.2C1253.48 566.02 1269.54 549.84 1250.94 533.66C1287.22 541.37 1292.31 540.59 1332.68 533.66C1323.31 549.84 1340.83 566.02 1350.19 582.2C1314.61 575.68 1275.7 576.76 1234.88 582.2Z" id="hLjBsiA2N"></path><path d="M1234.88 582.2C1253.48 566.02 1269.54 549.84 1250.94 533.66C1287.22 541.37 1292.31 540.59 1332.68 533.66C1323.31 549.84 1340.83 566.02 1350.19 582.2C1314.61 575.68 1275.7 576.76 1234.88 582.2Z" id="aZ2EbMCzD"></path><path d="M1243.56 575.3C1259.36 562.38 1273 549.46 1257.2 536.55C1288.02 542.7 1292.34 542.08 1326.63 536.55C1318.68 549.46 1333.56 562.38 1341.51 575.3C1311.29 570.09 1278.23 570.95 1243.56 575.3Z" id="b1l3jEAKFt"></path><path d="M1330 521.3C1321.1 521.3 1313.89 528.73 1313.89 537.89C1313.89 547.06 1321.1 554.49 1330 554.49C1338.89 554.49 1346.11 547.06 1346.11 537.89C1346.11 528.73 1338.89 521.3 1330 521.3Z" id="aOrFIVkE7"></path><path d="M1268.05 520.56L1273.63 537.17L1257.51 547.39L1238.91 518.64L1256.27 518.64L1256.89 518.64L1256.89 518.64L1268.05 520.56Z" id="b18xIcwWwo"></path><path d="M1288.51 490.54C1274.13 490.54 1262.47 502.55 1262.47 517.37C1262.47 532.18 1274.13 544.2 1288.51 544.2C1302.89 544.2 1314.54 532.18 1314.54 517.37C1314.54 502.55 1302.89 490.54 1288.51 490.54Z" id="frPcqH4NG"></path><path d="M1070.28 425.39C1070.28 425.39 1054.16 422.83 1054.16 422.83C1054.16 422.83 1046.72 433.05 1050.44 437.52C1052.52 440.1 1055.04 442.26 1057.88 443.91C1057.88 443.91 1064.7 441.99 1069.66 443.91C1069.66 443.91 1124.84 454.13 1133.52 446.47C1142.2 438.8 1144.67 419.64 1144.67 419.64C1129.8 420.79 1081.44 426.66 1070.28 425.39Z" id="b3nSyrnFYf"></path><path d="M1149.01 562.08C1149.01 562.08 1107.48 549.94 1100.04 496.29C1100.04 495.78 1100.04 491.69 1100.04 491.18C1100.04 491.18 1091.82 506.03 1088.88 509.06C1085.47 512.58 1073.38 544.2 1074 547.39C1074.62 550.58 1074 551.86 1074 551.86C1072.8 551.73 1066.81 551.09 1056.02 549.94C1056.02 546.49 1056.02 544.58 1056.02 544.2C1056.02 544.2 1065.63 514.49 1066.25 507.47C1066.25 507.47 1090.12 451.58 1090.12 451.58C1090.12 451.58 1098.8 433.05 1113.68 451.58C1113.68 451.58 1129.8 482.88 1129.8 482.88C1131.08 485.43 1137.48 498.21 1149.01 521.2C1149.01 543 1149.01 556.63 1149.01 562.08Z" id="a2acmgtoC"></path><path d="M1036.18 413.89C1036.18 413.89 1017.58 399.84 1021.92 413.89C1021.92 413.89 1046.1 458.6 1051.68 455.41C1051.68 455.41 1063.97 444.29 1062.48 443.14C1060.98 441.99 1051.06 433.69 1056.02 420.92C1052.05 419.51 1038.17 414.59 1036.18 413.89Z" id="adeUO2Jqg"></path><path d="M1042.4 548.48C1042.4 548.48 1023.04 551.55 1033.84 557.31C1033.84 557.31 1074.43 569.2 1075.92 563.83C1075.92 563.83 1076.82 549.54 1075.25 549.78C1073.69 550.02 1062.89 551.17 1058.42 540.42C1055.22 542.04 1044.01 547.68 1042.4 548.48Z" id="iguaZHdGC"></path><path d="M1140.96 519.92C1140.96 519.92 1132.9 555.69 1146.53 563.36C1160.17 571.02 1255.65 572.3 1263.09 558.25C1270.53 544.2 1266.81 544.2 1266.81 544.2C1265.48 542.66 1258.87 535 1246.97 521.2C1256.64 520.43 1262.01 520.01 1263.09 519.92C1263.09 519.92 1263.09 514.81 1257.51 514.17C1257.51 514.17 1234.57 507.15 1219.69 511.62C1219.69 511.62 1196.13 502.68 1196.13 502.68C1185.1 506.13 1151.99 516.47 1140.96 519.92Z" id="e4O54JTgaF"></path><path d="M1119.88 467.55L1192.41 458.6L1205.43 404.95L1130.42 408.14L1130.42 408.14L1119.88 467.55Z" id="a2lAYEqiaZ"></path><path d="M1123.91 463.39L1189.93 455.41L1202.64 407.18L1132.59 410.38L1132.59 410.38L1123.91 463.39Z" id="fAgYI8DF"></path><path d="M1119.88 467.55L1118.64 470.1L1138.48 526.95L1140.34 526.21L1140.95 522.48L1122.36 468.18L1122.36 468.18L1119.88 467.55Z" id="d2HspGoHRX"></path><path d="M1139.72 526.31L1214.73 514.81L1192.41 458.6L1119.88 466.91L1119.88 466.91L1139.72 526.31Z" id="dyzHymrjq"></path><path d="M1129.8 468.18L1184.97 461.8L1184.35 458.6L1129.8 464.99L1129.8 464.99L1129.8 468.18Z" id="b121zlOSw"></path><path d="M1139.72 496.29L1196.13 489.26L1186.21 465.63L1131.04 471.38L1131.04 471.38L1139.72 496.29Z" id="bcz4uNKcX"></path><path d="M1201.71 506.51C1200.6 503.44 1199.98 501.74 1199.85 501.4C1199.85 501.4 1185.59 475.85 1178.15 480.96C1178.15 480.96 1193.65 510.98 1193.65 510.98C1194.15 510.98 1196.63 510.98 1201.09 510.98L1201.71 506.51Z" id="e3oXUYKok"></path><path d="M1154.59 510.34C1153.48 505.74 1152.86 503.19 1152.73 502.68C1152.73 502.68 1147.77 479.04 1156.45 480.32C1156.45 480.32 1167.61 503.95 1167.61 503.95C1167.57 504.29 1167.37 506 1166.99 509.06L1154.59 510.34Z" id="b3cY9x0a0w"></path><path d="M1169.47 507.15C1169.47 507.15 1153.35 504.59 1152.73 508.43C1152.73 508.43 1149.01 569.75 1164.51 571.66C1164.51 571.66 1256.89 581.88 1248.83 562.08C1248.83 562.08 1228.37 544.83 1228.37 544.83C1224.86 545.22 1207.29 547.13 1175.67 550.58C1172.37 527.42 1170.3 512.94 1169.47 507.15Z" id="a15hfEbT2c"></path><path d="M1201.71 502.68L1190.86 511.3L1204.5 526.63L1218.14 514.49L1218.14 514.49L1201.71 502.68Z" id="b6ueJjDRIV"></path><path d="M1176.6 550.26L1219.38 547.71L1182.18 547.07L1174.12 525.99L1174.12 525.99L1176.6 550.26Z" id="b3pCRs0wd"></path><path d="M1301.36 490.3C1284.24 490.3 1270.36 504.6 1270.36 522.24C1270.36 539.88 1284.24 554.18 1301.36 554.18C1318.48 554.18 1332.36 539.88 1332.36 522.24C1332.36 504.6 1318.48 490.3 1301.36 490.3Z" id="bpEhvVWhB"></path><path d="M1180.32 427.52L1184.04 412.93L1144.37 414.17L1141.89 428.9L1141.89 428.9L1180.32 427.52Z" id="b18eJKhugx"></path><path d="M1190.24 435.29L1190.86 432.73L1132.59 434.85L1131.97 437.2L1131.97 437.2L1190.24 435.29Z" id="a46v7S2iNI"></path><path d="M1189 441.68L1189.62 439.12L1131.35 441.23L1130.73 443.59L1130.73 443.59L1189 441.68Z" id="cLIvOSKZF"></path><path d="M1188.38 446.79L1189 444.23L1130.73 446.34L1130.11 448.7L1130.11 448.7L1188.38 446.79Z" id="c14MIkOuez"></path></defs><g><g><g><use xlink:href="#e4KNNMeVq" opacity="1" fill="url(#gradientd4p9GwyND)"></use><g><use xlink:href="#e4KNNMeVq" opacity="1" fill-opacity="0" stroke="#000000" stroke-width="1" stroke-opacity="0"></use></g></g><g><use xlink:href="#i1ici5A3g" opacity="1" fill="#ced5ca" fill-opacity="1"></use></g><g><g><use xlink:href="#c4QkydzImO" opacity="1" fill="#e6e6e6" fill-opacity="1"></use><g><use xlink:href="#c4QkydzImO" opacity="1" fill-opacity="0" stroke="#000000" stroke-width="1" stroke-opacity="0"></use></g></g><g><use xlink:href="#h3sBfK3awC" opacity="1" fill="#e6e6e6" fill-opacity="1"></use><g><use xlink:href="#h3sBfK3awC" opacity="1" fill-opacity="0" stroke="#000000" stroke-width="1" stroke-opacity="0"></use></g></g><g><use xlink:href="#b3K2Xf9nvY" opacity="1" fill="#cccccc" fill-opacity="1"></use><g><use xlink:href="#b3K2Xf9nvY" opacity="1" fill-opacity="0" stroke="#000000" stroke-width="1" stroke-opacity="0"></use></g></g><g><use xlink:href="#c4XsgtCGg" opacity="1" fill="#e6e6e6" fill-opacity="1"></use><g><use xlink:href="#c4XsgtCGg" opacity="1" fill-opacity="0" stroke="#000000" stroke-width="1" stroke-opacity="0"></use></g></g><g><use xlink:href="#gcjXTrgKu" opacity="1" fill="#cccccc" fill-opacity="1"></use><g><use xlink:href="#gcjXTrgKu" opacity="1" fill-opacity="0" stroke="#000000" stroke-width="1" stroke-opacity="0"></use></g></g><g><use xlink:href="#c28Jqrn8L" opacity="1" fill="#cccccc" fill-opacity="1"></use><g><use xlink:href="#c28Jqrn8L" opacity="1" fill-opacity="0" stroke="#000000" stroke-width="1" stroke-opacity="0"></use></g></g><g><use xlink:href="#b22O0A7MkB" opacity="1" fill="#e6e6e6" fill-opacity="1"></use><g><use xlink:href="#b22O0A7MkB" opacity="1" fill-opacity="0" stroke="#000000" stroke-width="1" stroke-opacity="0"></use></g></g><g><use xlink:href="#d1IVsjYh3k" opacity="1" fill="#cccccc" fill-opacity="1"></use><g><use xlink:href="#d1IVsjYh3k" opacity="1" fill-opacity="0" stroke="#000000" stroke-width="1" stroke-opacity="0"></use></g></g><g><use xlink:href="#c3oCoDVkOg" opacity="1" fill="#cccccc" fill-opacity="1"></use><g><use xlink:href="#c3oCoDVkOg" opacity="1" fill-opacity="0" stroke="#000000" stroke-width="1" stroke-opacity="0"></use></g></g><g><use xlink:href="#bFXehFKLh" opacity="1" fill="#e6e6e6" fill-opacity="1"></use><g><use xlink:href="#bFXehFKLh" opacity="1" fill-opacity="0" stroke="#000000" stroke-width="1" stroke-opacity="0"></use></g></g><g><use xlink:href="#f2pXQJ2fMP" opacity="1" fill="#cccccc" fill-opacity="1"></use><g><use xlink:href="#f2pXQJ2fMP" opacity="1" fill-opacity="0" stroke="#000000" stroke-width="1" stroke-opacity="0"></use></g></g><g><use xlink:href="#cbHe4PL1w" opacity="1" fill="#cccccc" fill-opacity="1"></use><g><use xlink:href="#cbHe4PL1w" opacity="1" fill-opacity="0" stroke="#000000" stroke-width="1" stroke-opacity="0"></use></g></g><g><use xlink:href="#e2uudiewFI" opacity="1" fill="#e6e6e6" fill-opacity="1"></use><g><use xlink:href="#e2uudiewFI" opacity="1" fill-opacity="0" stroke="#000000" stroke-width="1" stroke-opacity="0"></use></g></g><g><use xlink:href="#eWEDjpWDI" opacity="1" fill="#e6e6e6" fill-opacity="1"></use><g><use xlink:href="#eWEDjpWDI" opacity="1" fill-opacity="0" stroke="#000000" stroke-width="1" stroke-opacity="0"></use></g></g><g><use xlink:href="#d1v6cmIBsE" opacity="1" fill="#e6e6e6" fill-opacity="1"></use><g><use xlink:href="#d1v6cmIBsE" opacity="1" fill-opacity="0" stroke="#000000" stroke-width="1" stroke-opacity="0"></use></g></g><g><use xlink:href="#d2uhZawTa" opacity="1" fill="#e6e6e6" fill-opacity="1"></use><g><use xlink:href="#d2uhZawTa" opacity="1" fill-opacity="0" stroke="#000000" stroke-width="1" stroke-opacity="0"></use></g></g><g><use xlink:href="#e3AvMvtRVi" opacity="1" fill="#e6e6e6" fill-opacity="1"></use><g><use xlink:href="#e3AvMvtRVi" opacity="1" fill-opacity="0" stroke="#000000" stroke-width="1" stroke-opacity="0"></use></g></g><g><use xlink:href="#g6Gtcw7Tqo" opacity="1" fill="#cccccc" fill-opacity="1"></use><g><use xlink:href="#g6Gtcw7Tqo" opacity="1" fill-opacity="0" stroke="#000000" stroke-width="1" stroke-opacity="0"></use></g></g><g><use xlink:href="#fo1JKgPT5" opacity="1" fill="#e6e6e6" fill-opacity="1"></use><g><use xlink:href="#fo1JKgPT5" opacity="1" fill-opacity="0" stroke="#000000" stroke-width="1" stroke-opacity="0"></use></g></g><g><use xlink:href="#b5i9m5DPDs" opacity="1" fill="#cccccc" fill-opacity="1"></use><g><use xlink:href="#b5i9m5DPDs" opacity="1" fill-opacity="0" stroke="#000000" stroke-width="1" stroke-opacity="0"></use></g></g><g><use xlink:href="#a6R6ml2Ow" opacity="1" fill="#cccccc" fill-opacity="1"></use><g><use xlink:href="#a6R6ml2Ow" opacity="1" fill-opacity="0" stroke="#000000" stroke-width="1" stroke-opacity="0"></use></g></g><g><use xlink:href="#d5y17LfV" opacity="1" fill="#e6e6e6" fill-opacity="1"></use><g><use xlink:href="#d5y17LfV" opacity="1" fill-opacity="0" stroke="#000000" stroke-width="1" stroke-opacity="0"></use></g></g><g><use xlink:href="#d4fIJ0VHL" opacity="1" fill="#cccccc" fill-opacity="1"></use><g><use xlink:href="#d4fIJ0VHL" opacity="1" fill-opacity="0" stroke="#000000" stroke-width="1" stroke-opacity="0"></use></g></g><g><use xlink:href="#f1uHEsyBuf" opacity="1" fill="#cccccc" fill-opacity="1"></use><g><use xlink:href="#f1uHEsyBuf" opacity="1" fill-opacity="0" stroke="#000000" stroke-width="1" stroke-opacity="0"></use></g></g><g><use xlink:href="#f3tt5PNwsZ" opacity="1" fill="#e6e6e6" fill-opacity="1"></use><g><use xlink:href="#f3tt5PNwsZ" opacity="1" fill-opacity="0" stroke="#000000" stroke-width="1" stroke-opacity="0"></use></g></g><g><use xlink:href="#g1L56ybVkH" opacity="1" fill="#cccccc" fill-opacity="1"></use><g><use xlink:href="#g1L56ybVkH" opacity="1" fill-opacity="0" stroke="#000000" stroke-width="1" stroke-opacity="0"></use></g></g><g><use xlink:href="#akVzfarGC" opacity="1" fill="#cccccc" fill-opacity="1"></use><g><use xlink:href="#akVzfarGC" opacity="1" fill-opacity="0" stroke="#000000" stroke-width="1" stroke-opacity="0"></use></g></g><g><use xlink:href="#f1up6EZHce" opacity="1" fill="#e6e6e6" fill-opacity="1"></use><g><use xlink:href="#f1up6EZHce" opacity="1" fill-opacity="0" stroke="#000000" stroke-width="1" stroke-opacity="0"></use></g></g><g><use xlink:href="#c6PwBVPKl" opacity="1" fill="#e6e6e6" fill-opacity="1"></use><g><use xlink:href="#c6PwBVPKl" opacity="1" fill-opacity="0" stroke="#000000" stroke-width="1" stroke-opacity="0"></use></g></g><g><use xlink:href="#h4kqTsrcKj" opacity="1" fill="#e6e6e6" fill-opacity="1"></use><g><use xlink:href="#h4kqTsrcKj" opacity="1" fill-opacity="0" stroke="#000000" stroke-width="1" stroke-opacity="0"></use></g></g><g><use xlink:href="#bUJZ6yXbr" opacity="1" fill="#e6e6e6" fill-opacity="1"></use><g><use xlink:href="#bUJZ6yXbr" opacity="1" fill-opacity="0" stroke="#000000" stroke-width="1" stroke-opacity="0"></use></g></g><g><use xlink:href="#b3GowgYrMP" opacity="1" fill="#e6e6e6" fill-opacity="1"></use><g><use xlink:href="#b3GowgYrMP" opacity="1" fill-opacity="0" stroke="#000000" stroke-width="1" stroke-opacity="0"></use></g></g><g><use xlink:href="#b1Obk2WGKG" opacity="1" fill="#cccccc" fill-opacity="1"></use><g><use xlink:href="#b1Obk2WGKG" opacity="1" fill-opacity="0" stroke="#000000" stroke-width="1" stroke-opacity="0"></use></g></g><g><use xlink:href="#b2KGEwlSdP" opacity="1" fill="#e6e6e6" fill-opacity="1"></use><g><use xlink:href="#b2KGEwlSdP" opacity="1" fill-opacity="0" stroke="#000000" stroke-width="1" stroke-opacity="0"></use></g></g><g><use xlink:href="#b9yRN6NU1" opacity="1" fill="#cccccc" fill-opacity="1"></use><g><use xlink:href="#b9yRN6NU1" opacity="1" fill-opacity="0" stroke="#000000" stroke-width="1" stroke-opacity="0"></use></g></g><g><use xlink:href="#a7nJYSu1D" opacity="1" fill="#cccccc" fill-opacity="1"></use><g><use xlink:href="#a7nJYSu1D" opacity="1" fill-opacity="0" stroke="#000000" stroke-width="1" stroke-opacity="0"></use></g></g><g><use xlink:href="#evDYmOjDM" opacity="1" fill="#e6e6e6" fill-opacity="1"></use><g><use xlink:href="#evDYmOjDM" opacity="1" fill-opacity="0" stroke="#000000" stroke-width="1" stroke-opacity="0"></use></g></g><g><use xlink:href="#djnbRI61M" opacity="1" fill="#cccccc" fill-opacity="1"></use><g><use xlink:href="#djnbRI61M" opacity="1" fill-opacity="0" stroke="#000000" stroke-width="1" stroke-opacity="0"></use></g></g><g><use xlink:href="#a4XO7ztT6" opacity="1" fill="#cccccc" fill-opacity="1"></use><g><use xlink:href="#a4XO7ztT6" opacity="1" fill-opacity="0" stroke="#000000" stroke-width="1" stroke-opacity="0"></use></g></g><g><use xlink:href="#a4geVPKOA2" opacity="1" fill="#e6e6e6" fill-opacity="1"></use><g><use xlink:href="#a4geVPKOA2" opacity="1" fill-opacity="0" stroke="#000000" stroke-width="1" stroke-opacity="0"></use></g></g><g><use xlink:href="#agnSclgI" opacity="1" fill="#cccccc" fill-opacity="1"></use><g><use xlink:href="#agnSclgI" opacity="1" fill-opacity="0" stroke="#000000" stroke-width="1" stroke-opacity="0"></use></g></g><g><use xlink:href="#a1brHSO3bN" opacity="1" fill="#cccccc" fill-opacity="1"></use><g><use xlink:href="#a1brHSO3bN" opacity="1" fill-opacity="0" stroke="#000000" stroke-width="1" stroke-opacity="0"></use></g></g><g><use xlink:href="#aqduxKdot" opacity="1" fill="#e6e6e6" fill-opacity="1"></use><g><use xlink:href="#aqduxKdot" opacity="1" fill-opacity="0" stroke="#000000" stroke-width="1" stroke-opacity="0"></use></g></g><g><use xlink:href="#a222LGKt" opacity="1" fill="#e6e6e6" fill-opacity="1"></use><g><use xlink:href="#a222LGKt" opacity="1" fill-opacity="0" stroke="#000000" stroke-width="1" stroke-opacity="0"></use></g></g><g><use xlink:href="#bRiWmBhHg" opacity="1" fill="#e6e6e6" fill-opacity="1"></use><g><use xlink:href="#bRiWmBhHg" opacity="1" fill-opacity="0" stroke="#000000" stroke-width="1" stroke-opacity="0"></use></g></g><g><use xlink:href="#hLjBsiA2N" opacity="1" fill="#6c63ff" fill-opacity="1"></use><g><use xlink:href="#hLjBsiA2N" opacity="1" fill-opacity="0" stroke="#000000" stroke-width="1" stroke-opacity="0"></use></g></g><g><use xlink:href="#aZ2EbMCzD" opacity="1" fill="#000000" fill-opacity="1"></use><g><use xlink:href="#aZ2EbMCzD" opacity="1" fill-opacity="0" stroke="#000000" stroke-width="1" stroke-opacity="0"></use></g></g><g><use xlink:href="#b1l3jEAKFt" opacity="1" fill="#6c63ff" fill-opacity="1"></use><g><use xlink:href="#b1l3jEAKFt" opacity="1" fill-opacity="0" stroke="#000000" stroke-width="1" stroke-opacity="0"></use></g></g><g><use xlink:href="#aOrFIVkE7" opacity="1" fill="#2f2e41" fill-opacity="1"></use><g><use xlink:href="#aOrFIVkE7" opacity="1" fill-opacity="0" stroke="#000000" stroke-width="1" stroke-opacity="0"></use></g></g><g><use xlink:href="#b18xIcwWwo" opacity="1" fill="#a0616a" fill-opacity="1"></use><g><use xlink:href="#b18xIcwWwo" opacity="1" fill-opacity="0" stroke="#000000" stroke-width="1" stroke-opacity="0"></use></g></g><g><use xlink:href="#frPcqH4NG" opacity="1" fill="#a0616a" fill-opacity="1"></use><g><use xlink:href="#frPcqH4NG" opacity="1" fill-opacity="0" stroke="#000000" stroke-width="1" stroke-opacity="0"></use></g></g><g><use xlink:href="#b3nSyrnFYf" opacity="1" fill="#2f2e41" fill-opacity="1"></use><g><use xlink:href="#b3nSyrnFYf" opacity="1" fill-opacity="0" stroke="#000000" stroke-width="1" stroke-opacity="0"></use></g></g><g><use xlink:href="#a2acmgtoC" opacity="1" fill="#2f2e41" fill-opacity="1"></use><g><use xlink:href="#a2acmgtoC" opacity="1" fill-opacity="0" stroke="#000000" stroke-width="1" stroke-opacity="0"></use></g></g><g><use xlink:href="#adeUO2Jqg" opacity="1" fill="#2f2e41" fill-opacity="1"></use><g><use xlink:href="#adeUO2Jqg" opacity="1" fill-opacity="0" stroke="#000000" stroke-width="1" stroke-opacity="0"></use></g></g><g><use xlink:href="#iguaZHdGC" opacity="1" fill="#2f2e41" fill-opacity="1"></use><g><use xlink:href="#iguaZHdGC" opacity="1" fill-opacity="0" stroke="#000000" stroke-width="1" stroke-opacity="0"></use></g></g><g><use xlink:href="#e4O54JTgaF" opacity="1" fill="#575a89" fill-opacity="1"></use><g><use xlink:href="#e4O54JTgaF" opacity="1" fill-opacity="0" stroke="#000000" stroke-width="1" stroke-opacity="0"></use></g></g><g><use xlink:href="#a2lAYEqiaZ" opacity="1" fill="#3f3d56" fill-opacity="1"></use><g><use xlink:href="#a2lAYEqiaZ" opacity="1" fill-opacity="0" stroke="#000000" stroke-width="1" stroke-opacity="0"></use></g></g><g><use xlink:href="#fAgYI8DF" opacity="1" fill="#ffffff" fill-opacity="1"></use><g><use xlink:href="#fAgYI8DF" opacity="1" fill-opacity="0" stroke="#000000" stroke-width="1" stroke-opacity="0"></use></g></g><g><use xlink:href="#d2HspGoHRX" opacity="1" fill="#b3b3b3" fill-opacity="1"></use><g><use xlink:href="#d2HspGoHRX" opacity="1" fill-opacity="0" stroke="#000000" stroke-width="1" stroke-opacity="0"></use></g></g><g><use xlink:href="#dyzHymrjq" opacity="1" fill="#d0cde1" fill-opacity="1"></use><g><use xlink:href="#dyzHymrjq" opacity="1" fill-opacity="0" stroke="#000000" stroke-width="1" stroke-opacity="0"></use></g></g><g><use xlink:href="#b121zlOSw" opacity="1" fill="#3f3d56" fill-opacity="1"></use><g><use xlink:href="#b121zlOSw" opacity="1" fill-opacity="0" stroke="#000000" stroke-width="1" stroke-opacity="0"></use></g></g><g><use xlink:href="#bcz4uNKcX" opacity="1" fill="#3f3d56" fill-opacity="1"></use><g><use xlink:href="#bcz4uNKcX" opacity="1" fill-opacity="0" stroke="#000000" stroke-width="1" stroke-opacity="0"></use></g></g><g><use xlink:href="#e3oXUYKok" opacity="1" fill="#a0616a" fill-opacity="1"></use><g><use xlink:href="#e3oXUYKok" opacity="1" fill-opacity="0" stroke="#000000" stroke-width="1" stroke-opacity="0"></use></g></g><g><use xlink:href="#b3cY9x0a0w" opacity="1" fill="#a0616a" fill-opacity="1"></use><g><use xlink:href="#b3cY9x0a0w" opacity="1" fill-opacity="0" stroke="#000000" stroke-width="1" stroke-opacity="0"></use></g></g><g><use xlink:href="#a15hfEbT2c" opacity="1" fill="#575a89" fill-opacity="1"></use><g><use xlink:href="#a15hfEbT2c" opacity="1" fill-opacity="0" stroke="#000000" stroke-width="1" stroke-opacity="0"></use></g></g><g><use xlink:href="#b6ueJjDRIV" opacity="1" fill="#575a89" fill-opacity="1"></use><g><use xlink:href="#b6ueJjDRIV" opacity="1" fill-opacity="0" stroke="#000000" stroke-width="1" stroke-opacity="0"></use></g></g><g><use xlink:href="#b3pCRs0wd" opacity="1" fill="#000000" fill-opacity="1"></use><g><use xlink:href="#b3pCRs0wd" opacity="1" fill-opacity="0" stroke="#000000" stroke-width="1" stroke-opacity="0"></use></g></g><g><use xlink:href="#bpEhvVWhB" opacity="1" fill="#2f2e41" fill-opacity="1"></use><g><use xlink:href="#bpEhvVWhB" opacity="1" fill-opacity="0" stroke="#000000" stroke-width="1" stroke-opacity="0"></use></g></g><g><use xlink:href="#b18eJKhugx" opacity="1" fill="#6c63ff" fill-opacity="1"></use><g><use xlink:href="#b18eJKhugx" opacity="1" fill-opacity="0" stroke="#000000" stroke-width="1" stroke-opacity="0"></use></g></g><g><use xlink:href="#a46v7S2iNI" opacity="1" fill="#e6e6e6" fill-opacity="1"></use><g><use xlink:href="#a46v7S2iNI" opacity="1" fill-opacity="0" stroke="#000000" stroke-width="1" stroke-opacity="0"></use></g></g><g><use xlink:href="#cLIvOSKZF" opacity="1" fill="#e6e6e6" fill-opacity="1"></use><g><use xlink:href="#cLIvOSKZF" opacity="1" fill-opacity="0" stroke="#000000" stroke-width="1" stroke-opacity="0"></use></g></g><g><use xlink:href="#c14MIkOuez" opacity="1" fill="#e6e6e6" fill-opacity="1"></use><g><use xlink:href="#c14MIkOuez" opacity="1" fill-opacity="0" stroke="#000000" stroke-width="1" stroke-opacity="0"></use></g></g></g></g></g></svg>